<svg width="20" height="20" viewBox="0 0 20 20" fill="none" xmlns="http://www.w3.org/2000/svg">
<path d="M16.3455 8.58457C16.236 8.47504 16.0874 8.41351 15.9325 8.41351C15.7776 8.41351 15.629 8.47504 15.5194 8.58457L9.15581 14.9756C8.88456 15.2469 8.56252 15.4621 8.20809 15.609C7.85366 15.7558 7.47377 15.8314 7.09013 15.8314C6.31533 15.8315 5.57223 15.5237 5.02433 14.9759C4.47642 14.4281 4.16857 13.685 4.16852 12.9102C4.16847 12.1354 4.4762 11.3923 5.02403 10.8444L11.1872 4.65611C11.5168 4.33179 11.9612 4.15083 12.4235 4.15266C12.8859 4.15449 13.3289 4.33895 13.6558 4.66587C13.9828 4.99278 14.1674 5.43566 14.1693 5.89804C14.1713 6.36042 13.9904 6.80483 13.6662 7.13447L7.50299 13.3228C7.39183 13.4293 7.24385 13.4887 7.08992 13.4887C6.936 13.4887 6.78801 13.4293 6.67686 13.3228C6.56733 13.2132 6.5058 13.0647 6.5058 12.9097C6.5058 12.7548 6.56733 12.6062 6.67686 12.4967L12.1641 6.98432C12.2705 6.87413 12.3294 6.72655 12.3281 6.57337C12.3267 6.42018 12.2653 6.27364 12.157 6.16532C12.0487 6.05699 11.9021 5.99555 11.7489 5.99422C11.5957 5.99289 11.4482 6.05178 11.338 6.1582L5.85074 11.6706C5.68795 11.8333 5.55882 12.0265 5.47072 12.2392C5.38262 12.4519 5.33727 12.6798 5.33727 12.91C5.33727 13.1402 5.38262 13.3682 5.47072 13.5808C5.55882 13.7935 5.68795 13.9867 5.85074 14.1495C6.18471 14.4682 6.62859 14.646 7.09022 14.646C7.55184 14.646 7.99573 14.4682 8.32969 14.1495L14.4923 7.9606C15.0286 7.41042 15.3266 6.67108 15.3217 5.90275C15.3168 5.13442 15.0093 4.39897 14.466 3.85571C13.9227 3.31244 13.1872 3.00512 12.4188 3.0003C11.6505 2.99549 10.9112 3.29357 10.3611 3.82998L4.19791 10.0183C3.4309 10.7853 3 11.8256 3 12.9103C3 13.995 3.4309 15.0353 4.19791 15.8023C4.96492 16.5693 6.00521 17.0002 7.08992 17.0002C8.17464 17.0002 9.21493 16.5693 9.98194 15.8023L16.3455 9.41303C16.4001 9.35874 16.4434 9.29419 16.473 9.2231C16.5025 9.15202 16.5178 9.07579 16.5178 8.9988C16.5178 8.92181 16.5025 8.84558 16.473 8.7745C16.4434 8.70341 16.4001 8.63886 16.3455 8.58457Z" fill="#9B9B9B"/>
</svg>
