<svg width="77" height="109" viewBox="0 0 77 109" fill="none" xmlns="http://www.w3.org/2000/svg">
<path d="M0.765625 38.3281C0.765625 17.0315 18.4091 -0.144796 39.8764 0.618876C60.3248 1.34481 76.2344 18.7709 76.2344 39.2319C76.2344 50.324 72.7323 61.134 66.2258 70.1166L38.5 108.406L11.3043 70.8497C4.45461 61.391 0.765625 50.0078 0.765625 38.3281Z" fill="#C43535"/>
<path d="M39.8764 0.618901C32.1085 0.342183 24.8455 2.42476 18.7344 6.19101V56.2969C18.7344 67.2129 27.584 76.0625 38.5 76.0625H61.9205L66.2258 70.1184C72.7323 61.1341 76.2344 50.3259 76.2344 39.2337C76.2344 18.7709 60.3248 1.34484 39.8764 0.618901Z" fill="#DC4A4A"/>
<path d="M38.5 68.875C55.3706 68.875 69.0469 55.1987 69.0469 38.3281C69.0469 21.4576 55.3706 7.78125 38.5 7.78125C21.6294 7.78125 7.95312 21.4576 7.95312 38.3281C7.95312 55.1987 21.6294 68.875 38.5 68.875Z" fill="white"/>
<path d="M56.4688 45.1922V63.0172C51.4375 66.7008 45.2203 68.875 38.5 68.875C31.7797 68.875 25.5625 66.7008 20.5312 63.0172V45.1922C21.0883 45.4078 21.6992 45.5156 22.3281 45.5156C23.8195 45.5156 25.1672 44.9047 26.1375 43.9344C27.1078 42.9641 27.7188 41.6164 27.7188 40.125C27.7188 41.6164 28.3297 42.9641 29.3 43.9344C30.2703 44.9047 31.618 45.5156 33.1094 45.5156C34.6008 45.5156 35.9484 44.9047 36.9188 43.9344C37.8891 42.9641 38.5 41.6164 38.5 40.125C38.5 41.6164 39.1109 42.9641 40.0813 43.9344C41.0516 44.9047 42.3992 45.5156 43.8906 45.5156C45.382 45.5156 46.7297 44.9047 47.7 43.9344C48.6703 42.9641 49.2812 41.6164 49.2812 40.125C49.2812 41.6164 49.8922 42.9641 50.8625 43.9344C51.8328 44.9047 53.1805 45.5156 54.6719 45.5156C55.3008 45.5156 55.9117 45.4078 56.4688 45.1922Z" fill="#969696"/>
<path d="M20.5312 62.992C25.5769 66.6756 31.7743 68.875 38.5 68.875C45.2257 68.875 51.4231 66.6756 56.4688 62.992V47.3125H20.5312V62.992Z" fill="#DDDDDD"/>
<path d="M60.0625 40.125C60.0625 41.6164 59.4516 42.9641 58.4812 43.9344C57.9242 44.4914 57.2414 44.9406 56.4688 45.1922C55.9117 45.4078 55.3008 45.5156 54.6719 45.5156C53.1805 45.5156 51.8328 44.9047 50.8625 43.9344C49.8922 42.9641 49.2812 41.6164 49.2812 40.125C49.2812 41.6164 48.6703 42.9641 47.7 43.9344C46.7297 44.9047 45.382 45.5156 43.8906 45.5156C42.3992 45.5156 41.0516 44.9047 40.0813 43.9344C39.1109 42.9641 38.5 41.6164 38.5 40.125C38.5 41.6164 37.8891 42.9641 36.9188 43.9344C35.9484 44.9047 34.6008 45.5156 33.1094 45.5156C31.618 45.5156 30.2703 44.9047 29.3 43.9344C28.3297 42.9641 27.7188 41.6164 27.7188 40.125C27.7188 41.6164 27.1078 42.9641 26.1375 43.9344C25.1672 44.9047 23.8195 45.5156 22.3281 45.5156C21.6992 45.5156 21.0883 45.4078 20.5312 45.1922C19.7586 44.9406 19.0758 44.4914 18.5187 43.9344C17.5484 42.9641 16.9375 41.6164 16.9375 40.125L20.5312 22.1562H56.4688L60.0625 40.125Z" fill="#C43535"/>
<path d="M49.2812 40.125L47.4844 22.1562H56.4688L60.0625 40.125C60.0625 43.1024 57.6493 45.5156 54.6719 45.5156C51.6945 45.5156 49.2812 43.1024 49.2812 40.125Z" fill="#DDDDDD"/>
<path d="M38.5 40.125V22.1562H29.5156L27.7188 40.125C27.7188 43.1024 30.132 45.5156 33.1094 45.5156C36.0868 45.5156 38.5 43.1024 38.5 40.125Z" fill="#DDDDDD"/>
<path d="M42.0938 52.7031H49.2812V59.8906H42.0938V52.7031Z" fill="#59A2D8"/>
<path d="M22.3281 45.5156C25.3055 45.5156 27.7188 43.1024 27.7188 40.125H16.9375C16.9375 43.1024 19.3507 45.5156 22.3281 45.5156Z" fill="#A02525"/>
<path d="M43.8906 45.5156C46.868 45.5156 49.2812 43.1024 49.2812 40.125H38.5C38.5 43.1024 40.9132 45.5156 43.8906 45.5156Z" fill="#A02525"/>
<path d="M49.2812 40.125C49.2812 43.1024 51.6945 45.5156 54.6719 45.5156C57.6493 45.5156 60.0625 43.1024 60.0625 40.125H49.2812Z" fill="#B5B5B5"/>
<path d="M33.1094 45.5156C36.0868 45.5156 38.5 43.1024 38.5 40.125H27.7188C27.7188 43.1024 30.132 45.5156 33.1094 45.5156Z" fill="#B5B5B5"/>
<path d="M27.7188 66.8733C29.9972 67.7412 32.4032 68.3413 34.9062 68.6396V52.7031H27.7188V66.8733Z" fill="#174B84"/>
</svg>
