<svg width="243" height="190" viewBox="0 0 243 190" fill="none" xmlns="http://www.w3.org/2000/svg">
<g clip-path="url(#clip0_109_8490)">
<g style="mix-blend-mode:multiply" opacity="0.2">
<path d="M197.658 174.733H198.156L173.3 174.341C172.65 174.341 172.137 173.799 172.152 173.166C172.152 172.518 172.711 172.05 173.33 172.02L197.673 172.412C198.323 172.412 198.836 172.955 198.821 173.588C198.821 174.221 198.292 174.733 197.658 174.733Z" fill="#5D7F8A"/>
</g>
<g style="mix-blend-mode:multiply" opacity="0.2">
<path d="M178.89 178.998H174.493C173.844 178.998 173.33 178.47 173.33 177.837C173.33 177.204 173.859 176.677 174.493 176.677H178.89C179.54 176.677 180.054 177.204 180.054 177.837C180.054 178.47 179.525 178.998 178.89 178.998Z" fill="#5D7F8A"/>
</g>
<g style="mix-blend-mode:multiply" opacity="0.2">
<path d="M163.492 172.417C165.683 188.696 158.854 191.018 81.7462 189.465C36.612 188.561 0 181.838 0 172.417C0 162.996 37.2618 156.996 82.3959 157.69C132.804 158.458 162.223 163.056 163.477 172.417H163.492Z" fill="#5D7F8A"/>
</g>
<path d="M134.875 -0.00378418C98.6409 -0.00378418 54.0054 25.5914 54.0054 45.0667H215.745C215.745 25.5914 171.109 -0.00378418 134.875 -0.00378418Z" fill="#FF8200"/>
<path d="M134.875 -0.00378418C98.6409 -0.00378418 54.0054 25.5914 54.0054 45.0667H215.745C215.745 25.5914 171.109 -0.00378418 134.875 -0.00378418Z" fill="black" fill-opacity="0.2"/>
<path d="M126.126 0.483398C91.8413 4.0408 54.0054 27.1338 54.0054 45.0716H94.1834C94.3798 41.8005 94.7727 38.002 95.5131 35.5148C97.0695 30.3445 98.6258 23.3804 111.303 10.7185C116.426 5.60847 121.669 2.44299 126.111 0.483398H126.126Z" fill="white"/>
<path d="M138.562 173.104L135.449 173.164L131.506 45.6102L134.618 45.5649L138.562 173.104Z" fill="#808080"/>
<path d="M134.875 -0.000551249C133.168 -0.000551249 131.445 0.0748175 129.723 0.180334C136.537 1.47668 145.377 4.34069 154.292 9.87276C170.218 19.7461 173.844 30.3881 175.658 35.6338C176.579 38.3169 177.335 41.9798 177.864 45.0549H215.745C215.745 25.5796 171.11 -0.015625 134.875 -0.015625V-0.000551249Z" fill="#FF8200"/>
<path d="M94.4097 45.0741C98.7463 52.1286 114.431 57.3441 134.935 57.3441C153.143 57.3441 170.716 51.6915 178.317 45.0741H94.4097Z" fill="white"/>
<path d="M177.908 45.0741C179.857 50.787 186.899 55.0228 196.116 55.0228C204.29 55.0228 212.193 50.4404 215.608 45.0741H177.923H177.908Z" fill="black"/>
<path d="M177.908 45.0741C179.857 50.787 186.899 55.0228 196.116 55.0228C204.29 55.0228 212.193 50.4404 215.608 45.0741H177.923H177.908Z" fill="#FF8200" fill-opacity="0.8"/>
<path d="M54.3979 45.0741C56.5285 50.787 64.2196 55.0228 74.283 55.0228C83.2282 55.0228 91.841 50.4404 95.5732 45.0741H54.3828H54.3979Z" fill="#FF8200"/>
<path d="M100.892 131.136C100.892 131.136 101.285 148.577 101.088 155.933C100.892 163.289 100.318 172.785 99.9247 175.302C99.5319 177.82 98.5648 180.533 103.808 183.05C109.051 185.568 111.771 184.799 115.262 184.603C118.752 184.407 119.538 185.764 123.995 187.12C128.468 188.477 133.892 189.065 138.169 188.281C142.445 187.512 143.412 187.316 146.132 187.693C148.852 188.07 153.778 188.492 158.175 187.377C162.708 186.216 161.635 183.503 165.291 183.759C176.428 184.528 175.461 179.945 175.461 179.945C175.461 179.945 171.184 163.485 170.021 153.792C168.857 144.1 167.89 130.94 167.89 130.94L100.892 131.136Z" fill="white"/>
<path d="M167.89 130.963C168.011 136.781 155.273 142.389 133.907 141.62C115.156 140.942 100.695 136.977 100.892 131.159C101.043 126.456 115.141 122.371 133.907 122.446C152.705 122.522 167.8 126.396 167.89 130.963Z" fill="white"/>
<g style="mix-blend-mode:multiply" opacity="0.2">
<path d="M137.488 122.478C136.309 122.448 135.116 122.433 133.907 122.433C115.14 122.433 101.057 126.443 100.891 131.146C100.891 131.146 101.284 148.586 101.088 155.942C100.891 163.298 100.317 172.795 99.924 175.312C99.5311 177.829 98.5641 180.542 103.807 183.06C109.051 185.577 111.77 184.808 115.261 184.612C118.751 184.416 119.537 185.773 123.995 187.13C125.506 187.597 127.137 187.959 128.8 188.215C122.544 175.87 125.974 159.65 124.78 145.285C124.78 141.758 126.412 138.215 128.905 134.99C129.268 134.824 129.57 134.673 129.933 134.507C131.837 134.507 133.741 133.844 135.66 132.894C137.896 129.91 138.334 126.217 137.503 122.478H137.488Z" fill="#5D7F8A"/>
</g>
<path d="M134.194 133.85H133.424C131.006 133.85 129.057 131.906 129.057 129.494L130.281 122.816H137.352L138.576 129.494C138.576 131.906 136.627 133.85 134.209 133.85H134.194Z" fill="#FF8200"/>
<g style="mix-blend-mode:multiply">
<path d="M134.088 128.243C134.572 126.886 136.34 127.007 138.319 128.243L137.322 122.816H130.25L129.026 129.494C129.026 131.906 130.976 133.85 133.393 133.85H134.164C134.164 133.85 134.27 133.85 134.315 133.835C133.333 131.966 133.121 130.097 134.058 128.228L134.088 128.243Z" fill="#C70026"/>
</g>
<path d="M133.212 122.555C133.65 123.294 133.061 123.882 132.442 124.47C131.807 125.058 130.825 124.5 129.979 124.605C128.513 124.786 126.851 124.53 125.899 123.384C124.962 122.254 125.34 120.113 126.79 119.812C125.476 119.119 124.796 117.4 125.279 115.998C125.763 114.596 127.334 113.647 128.8 113.903C128.317 113.737 128.12 113.134 128.271 112.637C128.422 112.139 128.785 111.778 129.163 111.446C130.538 110.21 132.245 109.17 134.104 109.245C135.947 109.321 137.791 110.964 137.488 112.788C138.093 112.335 138.803 111.974 139.574 111.959C140.329 111.944 141.13 112.32 141.432 113.014C141.719 113.707 141.326 114.672 140.571 114.792C141.795 114.792 142.989 115.622 143.396 116.767C143.804 117.928 143.397 119.315 142.429 120.068C143.049 120.144 143.517 120.716 143.608 121.334C143.699 121.952 143.502 122.571 143.2 123.113C142.157 124.982 139.921 126.128 137.791 125.872C135.66 125.615 134.164 125.178 133.62 123.113" fill="#6E820D"/>
<path d="M66.4564 101.793C66.4564 101.793 60.8959 105.576 58.3876 100.391C56.8312 97.1652 59.3999 93.3968 62.83 92.5979C66.3658 91.7688 70.2944 94.1957 72.5156 99.2002C74.7368 104.205 76.7465 115.193 76.55 123.183C76.414 128.805 75.4621 136.945 77.3811 142.085" stroke="black" stroke-width="1.23734" stroke-miterlimit="10" stroke-linecap="round"/>
<path d="M42.249 103.252C42.249 103.252 36.8093 107.714 34.4824 101.895C33.198 98.6846 35.4494 95.1122 38.7585 94.3434C42.1734 93.5445 45.951 95.896 48.0815 100.735C50.2121 105.573 52.1613 116.23 51.9649 123.978C51.7684 131.726 50.0307 144.388 56.8152 146.649C58.0392 147.056 59.8524 147.478 61.6958 147.87" stroke="black" stroke-width="1.23734" stroke-miterlimit="10" stroke-linecap="round"/>
<path d="M95.3918 144.252C95.3918 144.252 96.0416 150.327 96.0416 160.531V178.092" stroke="black" stroke-width="1.23734" stroke-miterlimit="10" stroke-linecap="round"/>
<path d="M55.26 145.868C55.26 145.868 54.8671 159.238 55.0635 166.986C55.26 174.734 55.26 181.909 55.6528 182.482C56.0457 183.07 57.0128 183.13 57.7834 182.482C57.9345 182.346 57.0128 175.217 57.0128 166.79C57.0128 158.364 59.3397 147.421 59.3397 147.421" fill="black"/>
<path d="M76.9874 141.179C76.7003 145.747 76.2621 153.103 76.1866 158.122C76.0506 165.87 75.7484 173.03 76.111 173.633C76.4737 174.236 77.4407 174.342 78.2416 173.724C78.4078 173.603 77.7732 166.88 78.166 158.469C78.5589 150.133 80.2361 142.189 80.2361 142.189" fill="black"/>
<path d="M80.3716 151.749C80.3716 151.749 81.0213 157.824 81.0213 168.029V185.59" stroke="black" stroke-width="1.23734" stroke-miterlimit="10" stroke-linecap="round"/>
<path d="M98.3677 145.474C98.3677 148.851 90.601 152.257 78.4675 151.865C66.9385 151.504 57.4644 149.996 57.7817 146.635C58.099 143.334 70.3987 139.716 81.6709 139.656C93.2 139.61 98.3677 142.098 98.3677 145.474Z" fill="#FF8200"/>
<g style="mix-blend-mode:multiply" opacity="0.5">
<path d="M78.786 149.805C68.632 149.489 60.0645 148.283 58.1606 145.75C57.9491 146.052 57.798 146.338 57.7678 146.64C57.4504 150.001 66.9245 151.509 78.4536 151.87C90.5871 152.262 98.3538 148.841 98.3538 145.479C98.3538 145.328 98.3386 145.193 98.3084 145.042C96.1628 147.8 89.0005 150.122 78.7709 149.805H78.786Z" fill="black" fill-opacity="0.2"/>
</g>
<path d="M52.1465 121.853C52.1465 121.853 57.979 119.154 65.1564 118.175C70.7925 117.406 76.2322 117.21 76.2322 117.21" stroke="black" stroke-width="0.857892" stroke-miterlimit="10" stroke-linecap="round"/>
<path d="M51.5723 95.886C51.5723 95.886 54.549 100.227 56.2262 106.543C57.7826 112.362 57.5861 119.522 57.5861 119.522" stroke="black" stroke-width="0.857892" stroke-miterlimit="10" stroke-linecap="round"/>
<path d="M57.9788 95.5109C57.9788 95.5109 61.2577 99.43 62.4514 104.811C63.8113 111.007 64.0077 118.182 64.0077 118.182" stroke="black" stroke-width="0.857892" stroke-miterlimit="10" stroke-linecap="round"/>
<path d="M64.3853 95.1118C64.3853 95.1118 67.4828 99.031 68.6614 104.412C70.0214 110.608 69.8249 117.195 69.8249 117.195" stroke="black" stroke-width="0.857892" stroke-miterlimit="10" stroke-linecap="round"/>
<path d="M46.1328 96.665C46.1328 96.665 50.409 95.7002 58.7498 94.9164C66.3351 94.2079 69.6292 94.7205 69.6292 94.7205" stroke="black" stroke-width="0.857892" stroke-miterlimit="10" stroke-linecap="round"/>
<path d="M208.432 101.793C208.432 101.793 213.993 105.576 216.501 100.391C218.057 97.1652 215.488 93.3968 212.058 92.5979C208.523 91.7688 204.594 94.1957 202.373 99.2002C200.152 104.19 198.142 115.193 198.338 123.183C198.474 128.805 199.426 136.945 197.507 142.085" stroke="black" stroke-width="1.23734" stroke-miterlimit="10" stroke-linecap="round"/>
<path d="M232.638 103.252C232.638 103.252 238.078 107.714 240.405 101.895C241.689 98.6846 239.438 95.1122 236.129 94.3434C232.714 93.5445 228.952 95.896 226.806 100.735C224.66 105.573 222.726 116.23 222.923 123.978C223.119 131.726 224.857 144.388 218.072 146.649C216.848 147.056 215.035 147.478 213.192 147.87" stroke="black" stroke-width="1.23734" stroke-miterlimit="10" stroke-linecap="round"/>
<path d="M179.495 144.252C179.495 144.252 178.846 150.327 178.846 160.531V178.092" stroke="black" stroke-width="1.23734" stroke-miterlimit="10" stroke-linecap="round"/>
<path d="M219.628 145.868C219.628 145.868 220.021 159.238 219.825 166.986C219.628 174.734 219.628 181.909 219.235 182.482C218.843 183.07 217.876 183.13 217.105 182.482C216.954 182.346 217.876 175.217 217.876 166.79C217.876 158.364 215.549 147.421 215.549 147.421" fill="black"/>
<path d="M197.885 141.179C198.172 145.747 198.61 153.103 198.686 158.122C198.822 165.87 199.124 173.03 198.761 173.633C198.399 174.236 197.432 174.342 196.631 173.724C196.465 173.603 197.099 166.88 196.706 158.469C196.313 150.133 194.636 142.189 194.636 142.189" fill="black"/>
<path d="M193.865 185.59V168.029C193.865 157.824 194.515 151.749 194.515 151.749" stroke="black" stroke-width="1.23734" stroke-miterlimit="10" stroke-linecap="round"/>
<path d="M176.519 145.474C176.519 148.851 184.285 152.257 196.419 151.865C207.948 151.504 217.422 149.996 217.105 146.635C216.787 143.334 204.488 139.716 193.216 139.656C181.686 139.61 176.519 142.098 176.519 145.474Z" fill="#FF8200"/>
<g style="mix-blend-mode:multiply" opacity="0.5">
<path d="M196.086 149.805C206.24 149.489 214.808 148.283 216.711 145.75C216.923 146.052 217.074 146.338 217.104 146.64C217.422 150.001 207.948 151.509 196.418 151.87C184.285 152.262 176.518 148.841 176.518 145.479C176.518 145.328 176.533 145.193 176.564 145.042C178.709 147.8 185.872 150.122 196.101 149.805H196.086Z" fill="black" fill-opacity="0.2"/>
</g>
<path d="M222.726 121.853C222.726 121.853 216.894 119.154 209.716 118.175C204.08 117.406 198.641 117.21 198.641 117.21" stroke="black" stroke-width="0.857892" stroke-miterlimit="10" stroke-linecap="round"/>
<path d="M223.315 95.886C223.315 95.886 220.338 100.227 218.661 106.543C217.105 112.362 217.301 119.522 217.301 119.522" stroke="black" stroke-width="0.857892" stroke-miterlimit="10" stroke-linecap="round"/>
<path d="M216.909 95.5109C216.909 95.5109 213.63 99.43 212.437 104.811C211.077 111.007 210.88 118.182 210.88 118.182" stroke="black" stroke-width="0.857892" stroke-miterlimit="10" stroke-linecap="round"/>
<path d="M210.502 95.1118C210.502 95.1118 207.405 99.031 206.226 104.412C204.866 110.608 205.063 117.195 205.063 117.195" stroke="black" stroke-width="0.857892" stroke-miterlimit="10" stroke-linecap="round"/>
<path d="M228.755 96.665C228.755 96.665 224.479 95.7002 216.138 94.9164C208.553 94.2079 205.259 94.7205 205.259 94.7205" stroke="black" stroke-width="0.857892" stroke-miterlimit="10" stroke-linecap="round"/>
<g style="mix-blend-mode:multiply" opacity="0.3">
<path d="M124.222 187.199C124.192 187.064 124.162 186.928 124.132 186.807C121.82 177.009 120.309 167.016 119.614 156.976C119.417 154.158 119.281 151.294 118.36 148.61C118.239 148.264 118.073 147.887 117.725 147.797C117.393 147.706 117.045 147.917 116.788 148.143C114.25 150.299 114.038 154.067 114.038 157.398C114.038 166.593 114.114 175.969 111.983 184.878C113.056 184.818 114.114 184.712 115.247 184.652C118.737 184.456 119.523 185.813 123.981 187.169C124.056 187.184 124.132 187.214 124.207 187.229L124.222 187.199Z" fill="#5D7F8A"/>
</g>
<g style="mix-blend-mode:multiply" opacity="0.3">
<path d="M143.503 151.219C141.236 152.108 140.299 154.746 139.831 157.128C137.821 167.499 139.906 178.819 136.28 188.542C136.93 188.481 137.549 188.406 138.154 188.3C142.43 187.532 143.397 187.336 146.117 187.712C146.963 187.833 148.036 187.954 149.229 188.029C146.419 176.377 146.827 164.152 144.983 152.274C144.923 151.837 144.802 151.34 144.394 151.144C144.107 151.008 143.775 151.083 143.488 151.204L143.503 151.219Z" fill="#5D7F8A"/>
</g>
<g style="mix-blend-mode:multiply" opacity="0.3">
<path d="M165.291 183.777C165.971 183.822 166.591 183.852 167.18 183.852C165.563 174.1 163.674 164.392 161.498 154.745C161.317 153.961 160.924 153.012 160.123 153.027C159.323 153.057 158.99 154.052 158.9 154.851C157.781 165.146 161.332 175.441 161.302 185.767C162.511 184.666 162.904 183.596 165.276 183.762L165.291 183.777Z" fill="#5D7F8A"/>
</g>
<g style="mix-blend-mode:multiply" opacity="0.6">
<path d="M134.528 120.622C134.029 121.3 133.288 121.843 132.442 121.934C131.596 122.024 130.69 121.587 130.357 120.818C130.04 120.034 130.493 118.994 131.324 118.813C130.357 119.175 129.209 119.175 128.363 118.587C127.531 117.984 127.184 116.688 127.834 115.889C128.816 114.683 130.856 115.437 132.216 114.683C131.007 114.412 130.146 113.206 130.1 111.97C130.085 111.442 130.221 110.945 130.433 110.462C129.979 110.764 129.556 111.096 129.148 111.457C128.771 111.789 128.393 112.166 128.257 112.648C128.121 113.13 128.317 113.748 128.786 113.914C127.32 113.673 125.733 114.608 125.265 116.01C124.781 117.411 125.461 119.115 126.776 119.823C125.325 120.125 124.948 122.265 125.884 123.396C126.821 124.526 128.483 124.782 129.964 124.617C130.826 124.511 131.808 125.069 132.427 124.481C133.062 123.893 133.636 123.305 133.198 122.567L133.591 123.124C134.135 125.189 135.631 125.627 137.761 125.883C139.257 126.064 140.783 125.551 141.932 124.587C138.97 124.978 135.751 123.381 134.497 120.637L134.528 120.622Z" fill="#6E820D"/>
</g>
<g style="mix-blend-mode:multiply" opacity="0.2">
<path d="M217.996 180.555L175.673 180.178C174.705 178.445 172.892 175.023 171.759 170.712C170.928 167.546 169.976 162.828 169.326 159.572C170.082 159.15 170.595 158.864 170.595 158.864L170.731 158.653C170.429 156.95 170.188 155.306 170.006 153.829C169.704 151.327 169.417 148.599 169.16 145.916L168.269 146.473C168.269 146.473 165.156 149.187 162.058 149.578C161.182 149.684 160.215 149.805 159.233 149.925L159.112 148.78L158.281 140.866C160.321 140.519 164.325 139.645 166.41 137.972L168.314 136.449C168.042 133.193 167.876 130.993 167.876 130.993C167.876 130.299 167.468 129.636 166.818 128.988H159.369L159.535 128.445H166.214C165.942 128.234 165.654 128.038 165.322 127.842C165.246 127.797 165.171 127.752 165.095 127.706C164.687 127.48 164.249 127.239 163.766 127.028L163.705 126.998C163.222 126.772 162.693 126.561 162.134 126.35L157.827 126.048V126.094H150.393C149.743 126.094 149.23 126.621 149.23 127.254C149.23 127.887 149.759 128.415 150.393 128.415H157.102L156.528 130.269C155.848 132.5 152.947 134.429 151.647 135.138H141.584C140.934 135.138 140.42 135.665 140.42 136.298C140.42 136.932 140.949 137.459 141.584 137.459H155.546L155.757 139.539C155.697 139.705 155.667 139.871 155.697 140.067C155.712 140.233 155.787 140.383 155.863 140.519L156.785 149.232L156.891 150.287C155.213 150.573 153.672 150.965 152.705 151.538C150.756 152.699 147.265 155.02 146.872 159.678C146.736 161.276 148.429 163.16 151.919 163.552C153.778 163.763 156.513 163.522 158.915 163.205C159.263 166.521 159.867 171.797 160.457 175.279C161.227 179.847 161.998 183.555 162.224 184.625C162.119 184.806 163.705 186.389 164.355 186.404L193.457 187.172H193.487C194.122 187.172 194.636 186.675 194.651 186.042C194.666 185.394 194.152 184.866 193.518 184.851L163.992 184.097C163.735 182.846 163.01 179.334 162.285 175.053C161.696 171.556 161.091 166.205 160.744 162.919C162.028 162.708 163.071 162.497 163.584 162.376C164.355 162.18 166.062 161.336 167.604 160.522C168.238 163.763 169.145 168.134 169.931 171.119C171.034 175.324 172.968 179.5 173.738 181.083C173.708 181.173 173.678 181.263 173.678 181.354C173.678 182.002 174.192 182.515 174.826 182.53L217.936 182.922C218.57 182.922 219.099 182.409 219.099 181.776C219.099 181.128 218.585 180.615 217.951 180.6L217.996 180.555ZM158.039 138.514L157.691 135.289H162.058L162.33 137.429C160.865 137.942 159.263 138.303 158.039 138.514ZM158.779 130.917L159.021 130.118H166.984L167.437 133.736C167.437 133.857 167.513 133.947 167.589 134.022C167.589 134.022 167.558 134.022 167.543 134.037L166.606 134.791L166.198 131.535H158.507C158.598 131.324 158.704 131.128 158.779 130.902V130.917ZM156.77 134.128C157.178 133.691 157.555 133.208 157.888 132.711H165.186L165.549 135.665L164.959 136.133C164.567 136.449 164.038 136.736 163.448 136.992L163.086 134.143H156.755L156.77 134.128Z" fill="#5D7F8A"/>
</g>
<g style="mix-blend-mode:multiply" opacity="0.3">
<path d="M115.459 24.3989C112.648 15.3094 115.247 7.47106 120.626 1.1853C87.9278 6.46112 54.0054 28.0769 54.0054 45.0499H54.3982C56.5288 50.7629 64.2199 54.9986 74.2833 54.9986C82.7752 54.9986 90.98 50.8684 94.9691 45.8488C99.9706 52.4963 115.187 57.32 134.921 57.32C139.287 57.32 143.624 56.9883 147.794 56.4004C132.231 51.4563 119.236 41.3719 115.443 24.3838L115.459 24.3989Z" fill="#5D7F8A"/>
</g>
</g>
<defs>
<clipPath id="clip0_109_8490">
<rect width="243" height="190" fill="white"/>
</clipPath>
</defs>
</svg>
